<svg xmlns="http://www.w3.org/2000/svg" viewBox="0 0 31.55 21.2"><defs><style>.cls-1{fill:#ff8f12;}.cls-2{fill:#fff;}</style></defs><title>pro_1</title><g id="Слой_2" data-name="Слой 2"><g id="Слой_1-2" data-name="Слой 1"><g id="Canvas"><g id="PRO"><g id="Vector_26" data-name="Vector 26"><path id="path0_fill" data-name="path0 fill" class="cls-1" d="M.25,18.6V2.6s16.26-5.29,24,0c3.43,2.34,7,8,7,8s-3.57,5.66-7,8C16.51,23.89.25,18.6.25,18.6Z"/><path class="cls-2" d="M31.55,10.6l-.25-.38-.45-.68c-.39-.57-.95-1.36-1.61-2.21a24.23,24.23,0,0,0-4.84-4.93c-4-2.7-10-2.69-15.08-2A58.12,58.12,0,0,0,2.85,1.61c-.83.21-1.5.39-2,.53L0,2.42V18.78s2,.6,2.85.8a58.15,58.15,0,0,0,6.46,1.24c5,.66,11.12.68,15.08-2a24.22,24.22,0,0,0,4.84-4.93c.66-.86,1.22-1.64,1.61-2.21L31.3,11Zm-1.11.78c-.39.57-.94,1.34-1.59,2.19a23.51,23.51,0,0,1-4.73,4.82C20.32,21,14.41,21,9.38,20.34A57.41,57.41,0,0,1,3,19.1c-.82-.21-1.48-.39-1.94-.52l-.53-.16h0V2.78h0L1,2.62C1.49,2.49,2.15,2.3,3,2.1A57.41,57.41,0,0,1,9.38.87c5-.66,10.94-.64,14.73,1.94a23.5,23.5,0,0,1,4.73,4.82c.66.85,1.21,1.62,1.59,2.19l.52.78Z"/></g><g id="PRO-2" data-name="PRO"><path id="path2_fill" data-name="path2 fill" class="cls-2" d="M4.37,11.21v3.34H3.24V6H6.39a3.15,3.15,0,0,1,2.19.71,2.42,2.42,0,0,1,.8,1.89,2.4,2.4,0,0,1-.78,1.92,3.3,3.3,0,0,1-2.22.67Zm0-.92h2a2,2,0,0,0,1.38-.42,1.56,1.56,0,0,0,.48-1.23,1.6,1.6,0,0,0-.48-1.22,1.9,1.9,0,0,0-1.32-.47H4.37Zm9.57.81h-2v3.45H10.8V6h2.82a3.33,3.33,0,0,1,2.21.66,2.36,2.36,0,0,1,.78,1.91A2.29,2.29,0,0,1,16.19,10a2.55,2.55,0,0,1-1.2.88l2,3.62v.07H15.79Zm-2-.92h1.73A1.94,1.94,0,0,0,15,9.75a1.46,1.46,0,0,0,.5-1.16A1.54,1.54,0,0,0,15,7.37a2,2,0,0,0-1.36-.43H11.94Zm12.83.38a5.3,5.3,0,0,1-.42,2.19,3.2,3.2,0,0,1-1.2,1.42,3.3,3.3,0,0,1-4.8-1.41,5.12,5.12,0,0,1-.44-2.13V10a5.21,5.21,0,0,1,.43-2.17,3.36,3.36,0,0,1,4.8-1.45,3.16,3.16,0,0,1,1.21,1.44A5.28,5.28,0,0,1,24.77,10ZM23.65,10A3.81,3.81,0,0,0,23,7.68a2.17,2.17,0,0,0-3.39,0A3.75,3.75,0,0,0,19,9.93v.63a3.86,3.86,0,0,0,.62,2.31,2.17,2.17,0,0,0,3.39,0,3.82,3.82,0,0,0,.62-2.28Z"/></g></g></g></g></g></svg>