<svg xmlns="http://www.w3.org/2000/svg" viewBox="0 0 425.65 511.94"><title>Ресурс 1</title><g id="Слой_2" data-name="Слой 2"><g id="Слой_1-2" data-name="Слой 1"><path d="M229.65,0c6.18,1,12.37,1.91,18.53,3,28.93,5.24,52.06,18.81,65.58,46C320.9,63.43,324,78.92,325.39,94.73c1.82,20.23,3,40.52,1.25,60.83-5.31,62.67-47.42,105.88-93.89,120.85-19.63,6.33-37.89,2.67-55.51-6.08-44.76-22.26-70.88-58.4-77.56-107.88a259.94,259.94,0,0,1,4.21-91.34C112,34.33,135.36,12,172.24,4c7.74-1.67,15.61-2.71,23.41-4ZM310,120c-2.85,4.1-5.2,8.12-9,10.85-4.81,3.43-8,3.55-12.7,0-3.29-2.54-6.43-5.29-9.51-8.1C243.11,90.11,188,92.12,156.44,114.94c-6.5,4.7-12.33,10.17-18.56,15.18-5.54,4.46-9.72,4.21-15.06-.5-3-2.64-4.91-6.12-7.86-10.3-.3,12.77-.71,24.31.52,35.87,4.37,41.06,23.5,73,58.84,94.72C194,262,214.7,268.16,237.18,257c3.13-1.55,6.38-2.87,9.43-4.57C296.19,224.75,315,176.07,310,120ZM249.51,52.79c.35-2.3-1.54-2.08-2.59-2.39a117.2,117.2,0,0,0-68.72,0c-2.22.66-2.92,1.42-1.86,3.8,2.22,5,4.25,10.1,6,15.27.9,2.61,2.25,2.74,4.53,2.1a92.85,92.85,0,0,1,51.63,0c1.25.35,2.89,1.11,3.57-.47C244.71,65,247.1,58.79,249.51,52.79Z"/><path d="M212.64,333.82c4.94-13,9.62-24.46,13.68-36.17,2-5.68,5.25-8.54,11.12-9.93a94.08,94.08,0,0,0,36-17.7c4.4-3.41,8.35-3.73,13.26-1.07,27.94,15.15,55.75,30.53,83.59,45.87,19,10.49,31.24,25.83,39,45.58,7.84,19.94,12.45,40.69,16.16,61.7.62,3.53-.61,6.53-2.37,9.45-6.24,10.35-15,18.17-24.83,25a156,156,0,0,1-25.35,13.91c-2.28,1-3.89,1.23-5.64-.85-1.92-2.28-4.68-3.54-7.4-5,16.81-8.88,17.46-25,8-38.45-26.3-37.12-81-38.66-108.56-2.58-1.91,2.5-3.77,3.57-7,3.55q-39.75-.21-79.49,0a7.37,7.37,0,0,1-6.62-3.26A67.12,67.12,0,0,0,56.9,427.1C46.62,442.2,49.4,455,65.15,464.54c-2.64,2.05-5.84,3.31-7.91,6-1.06,1.38-2.23,1-3.53.43-18.48-8.14-35.54-18.22-48.27-34.44-4.55-5.8-6.5-11.74-4.87-19.41,5.27-24.81,11.11-49.36,23.13-72A64.47,64.47,0,0,1,48.35,319c30.14-17.7,61-34.17,91.69-50.8a8.71,8.71,0,0,1,10.25.78,106.45,106.45,0,0,0,40.59,19.65c3.81.91,5.87,3.3,7.19,6.86C202.65,307.8,207.38,320,212.64,333.82Z"/><path d="M94.05,483c6,0,12-.21,18,.08,3.44.17,4.68-1.15,5.12-4.35a102.81,102.81,0,0,0-.12-28.84c-.47-3.17-1.88-4-4.95-4-12,.17-24,.08-36,.06-1.78,0-3.81.49-4.88-1.6s.41-3.53,1.37-5c9.71-14.78,23.5-22.57,41.12-22.17,18.25.41,32.11,9.12,40.77,25.24,2,3.74,4.12,4.64,8,4.62q50.48-.21,101,0c3.73,0,5.44-1.19,7.11-4.42,16.75-32.25,62.23-34.44,81.64-4,1.08,1.69,3.14,3.36,1.62,5.8-1.31,2.1-3.54,1.5-5.47,1.5-11.83,0-23.66.11-35.48,0-2.87,0-4.17.78-4.61,3.72a98.77,98.77,0,0,0,0,29.81c.48,3.1,2,3.6,4.7,3.58,12-.11,24-.06,36,0,1.77,0,3.79-.52,5,1.45,1.34,2.23-.36,3.86-1.4,5.41-10,15-24.21,22.81-42.23,22-17.8-.83-31.27-9.63-39.65-25.43-1.86-3.51-3.79-4.52-7.57-4.51q-50.48.22-101,0c-3.86,0-5.74,1.14-7.52,4.58-16.58,32-61.62,34.31-81.35,4.24-1.12-1.7-3.17-3.36-2-5.77s3.72-1.73,5.79-1.75c5.66-.06,11.32,0,17,0Z"/></g></g></svg>