<svg xmlns="http://www.w3.org/2000/svg" viewBox="0 0 589.4 450.99"><g id="Слой_2" data-name="Слой 2"><g id="Слой_1-2" data-name="Слой 1"><path d="M337.4,313.82a122.21,122.21,0,0,0,21.81-2c40.15-7.51,71.15-44,71.5-84.81.41-47.16.12-94.33,0-141.49a65.79,65.79,0,0,0-1.55-13.36C420.08,29.27,385,.41,340.06.19,257.23-.22,174.4.18,91.57,0,36.69-.09-1.18,44.89,0,93c1.1,43.8.19,87.66.24,131.49a89.66,89.66,0,0,0,88.4,89.33c7.48.09,15,0,23.1,0-.47,1.94-.68,3.07-1,4.16C103,343.12,95.14,368.19,87.46,393.3a43.56,43.56,0,0,0-2,11.23c-.18,6,3.38,8.3,8.82,5.63a49.45,49.45,0,0,0,10.22-7q49.6-42.75,99-85.72a13.23,13.23,0,0,1,9.38-3.57Q275.15,314,337.4,313.82ZM102.15,148.47c-3.48,3-4.27,6.08-3.2,10.51,1.51,6.25,2.24,12.68,3.48,20.06-7.4-3.87-13.94-7.11-20.29-10.69-2.51-1.42-4.44-1.26-6.86.08-6.22,3.45-12.58,6.65-19.9,10.47,1.3-8.18,2.17-15.38,3.7-22.43.64-3-.24-4.58-2.13-6.49-5.09-5.18-10-10.53-15.1-15.93,6.64-1,13.45-2.35,20.32-3,3.75-.33,5.58-2,7-5.16,2.91-6.28,6.1-12.43,9.59-19.48,3.66,7.38,7,13.83,10.06,20.41,1.28,2.77,3.08,3.85,6.08,4.18,6.92.76,13.8,1.94,21.67,3.09C111.46,139.29,107.06,144.17,102.15,148.47ZM190.21,150c-1.95,1.87-2.81,3.46-2.16,6.45,1.53,7.07,2.37,14.29,3.66,22.49-6.94-3.67-13.06-6.63-18.88-10.09-3.3-2-5.93-1.75-9.13.08-5.89,3.38-12,6.39-19,10.08,1.3-7.61,2.25-14.38,3.67-21,.77-3.65.1-6.21-2.71-8.82-5-4.62-9.51-9.69-14.73-15.09,7.42-1.1,14.29-2.29,21.21-3.07,3-.34,4.78-1.43,6.08-4.2,3.06-6.58,6.43-13,10.09-20.32,3.51,7,6.77,13.15,9.62,19.47,1.47,3.25,3.34,4.78,7,5.12,6.88.63,13.69,2,21.14,3.08C200.5,139.79,195.44,145,190.21,150Zm140.12-18.92c3.89-.34,5.86-1.91,7.39-5.33,2.76-6.21,6-12.21,9.48-19.29,3.42,6.89,6.63,12.93,9.43,19.15,1.61,3.59,3.77,5.17,7.84,5.5,6.69.53,13.32,1.95,20.14,3-5.35,5.49-10.57,10.54-15.37,16a9.17,9.17,0,0,0-2,6.35c.8,7.18,2.18,14.3,3.51,22.51-6.81-3.59-12.77-6.47-18.45-9.83-3.53-2.08-6.39-2.25-10-.05-5.75,3.49-11.88,6.36-18.59,9.89,1.26-7.56,2.07-14.3,3.58-20.88.91-4-.08-6.51-2.92-9.21-4.81-4.57-9.23-9.55-14.2-14.76C316.8,133.1,323.53,131.71,330.33,131.12ZM251.11,170c-5,3.15-10.48,5.68-16.94,9.11,1.29-7.51,2.13-13.93,3.57-20.21,1-4.38,0-7.37-3.35-10.39-4.8-4.32-9.05-9.25-14-14.35,7.13-1.07,14.26-1.88,21.26-3.34a9.79,9.79,0,0,0,5.89-4.13c3.59-6.27,6.57-12.9,10.19-20.19,3.66,7.38,7,13.83,10.05,20.41,1.29,2.79,3.13,3.81,6.1,4.15,6.92.78,13.78,2,21.9,3.16-5.4,5.31-10,10.22-15,14.65-3.15,2.78-3.92,5.62-3,9.63,1.41,6.45,2.31,13,3.59,20.54-6.2-3.25-11.94-5.72-17.08-9.1C259.55,166.8,255.68,167.12,251.11,170Z"/><path d="M588.53,211.65c-1.41-34.7-33.41-64.94-68-66.09-22-.73-44-.38-66-.48a25.51,25.51,0,0,0-3.79.54V167.2H458c17.5,0,35-.1,52.5,0a73.34,73.34,0,0,1,14.89,1.32c25.14,5.47,41.68,26.18,41.76,52.07.08,27,0,54,0,81,0,11.3-2.32,21-7,29-9.86,15.2-29.42,25.92-50.94,25.92l0,0c-5.19.13-10.39.21-15.59.31-7,.14-8.56,2.2-6.48,9q7.3,23.84,14.64,47.66c.39,1.26.63,2.56,1.17,4.81-22.67-19.62-44.5-38.42-66.2-57.37a15.8,15.8,0,0,0-11.24-4.21c-33.17.15-66.33-.1-99.5.17-18.75.15-34.11-6.21-45.7-21.19-.83-1.07-2.28-2.29-3.47-2.33-7.45-.21-14.91-.11-23.21-.11,1.22,2.7,1.92,4.71,3,6.52,14.74,25.4,36.61,39,66.18,39.21q46,.32,92-.09c6.33-.07,10.93,1.84,15.59,5.94,23.26,20.48,46.78,40.66,70.22,60.94,5.62,4.86,12,6.54,19,3.65,6.41-2.63,10-7.73,10.66-14.51A24.08,24.08,0,0,0,529,426.3c-4.15-14.2-8.45-28.36-12.79-42.51-.66-2.16-.58-3.56.65-4.22a71.7,71.7,0,0,0,54.54-25.93c10.34-11.36,16.67-24.92,17.11-40.08C589.47,279.61,589.91,245.57,588.53,211.65Z"/></g></g></svg>