<svg viewBox="0 0 478 380" width="478" height="380" xmlns="http://www.w3.org/2000/svg">
    <path d="M358.08,88.67c-.05,22.33,23.14,36.91,43.08,26.8a9.67,9.67,0,0,1,9.67-.06C424,121.76,433,132.08,439.51,145c.94,1.86.57,3.44.07,5.25-4.3,15.89-8.63,31.77-12.7,47.71a10,10,0,0,1-5.31,6.65q-38.77,22.23-77.43,44.64L175.5,346.59c-18.59,10.74-37.21,21.43-55.73,32.31-2.94,1.73-4.25,1.55-6-1.56q-56.15-97.61-112.6-195c-1.87-3.23-1.54-4.58,1.73-6.46Q154.1,88.72,305.18,1.34a8.94,8.94,0,0,1,7.47-.92q75.84,20.46,151.72,40.73c2.91.78,4.21,1.38,3.2,4.94-4.21,14.7-8.14,29.48-11.93,44.3-.89,3.45-1.78,3.15-4,1.15a94.28,94.28,0,0,0-37-20.08c-2.49-.71-3.89-2.35-5.53-4A29.86,29.86,0,0,0,376.74,61,29.56,29.56,0,0,0,358.08,88.67ZM233.66,227c-1.57-1.92-3.46-2.24-5.12-2.9-10-4-20.09-8-30.14-12-6.11-2.42-6.11-2.42-3.7-8.32,6-14.77-1.75-31.94-16.09-35.3-7.41-1.73-14.25.41-20.62,3.95-10.63,5.89-21.06,12.12-31.68,18-2.72,1.51-2.31,2.94-1,5.14q19.43,33.47,38.68,67.05c1.73,3,3.25,3,5.85,1.34,3.78-2.42,7.68-4.69,11.66-6.76,2.63-1.37,3.22-2.6,1.52-5.34-3.95-6.36-7.61-12.91-11.21-19.47-.76-1.38-3.19-2.93-1.14-4.68,1.8-1.53,3.92-3.31,6.75-2.23,1.09.42,2.16.88,3.23,1.33,9,3.8,18.09,7.62,27.15,11.39,1.64.68,3.27,1.86,5.19.74Zm117.28-69.08c-1.85-3.23-4-6.61-5.76-10.18-1.42-2.89-2.92-2.83-5.44-1.32-8.13,4.88-16.42,9.49-24.56,14.36-2.34,1.4-3.7,1.38-5.06-1.22-2.15-4.13-4.5-8.16-7-12.1-1.35-2.15-1.19-3.32,1.16-4.58,5.28-2.83,10.4-5.93,15.59-8.93,10.91-6.3,10.82-6.25,4.13-17.13-1.58-2.57-2.84-3.12-5.46-1.5-5.38,3.32-10.92,6.37-16.39,9.54-9.44,5.47-9.34,5.42-14.47-4.05-1.4-2.58-.85-3.73,1.51-5,6-3.29,11.84-6.78,17.74-10.2,10.59-6.14,10.46-6.07,4.22-16.74-1.82-3.12-3.33-3.24-6.2-1.53-12.17,7.2-24.45,14.22-36.69,21.3-9.43,5.45-9.45,5.46-4,14.85q17.45,30.27,35,60.5c1.08,1.87,1.62,4.48,5.05,2.46,14.76-8.7,29.65-17.18,44.48-25.77C349.69,160.09,351,159.75,350.94,157.94Zm-118.45,7.13c-1.8.6-2.19-.5-2.68-1.31-1.45-2.43-2.68-5-4.28-7.32s-1-3.42,1.23-4.65c6-3.3,11.84-6.77,17.75-10.17,11-6.32,10.88-6.26,4.31-17.37-1.59-2.69-2.84-2.89-5.42-1.37-14.34,8.43-28.72,16.79-43.22,24.95-3,1.7-3,3.06-1.43,5.79q19.37,33.19,38.43,66.55c1.82,3.2,3.22,3.16,6.1,1.45,11.87-7.06,23.86-13.9,35.84-20.76,10.59-6.07,10.5-6,4.32-16.67-1.72-3-3.12-3.55-6.14-1.71-8,4.84-16.18,9.25-24.12,14.1-2.7,1.65-4,1.21-5.34-1.44a133.59,133.59,0,0,0-6.72-11.67c-1.64-2.51-.92-3.65,1.45-4.92,5-2.68,9.83-5.59,14.73-8.42,11.43-6.59,11.36-6.55,4.48-17.7-1.47-2.38-2.65-2.85-5.09-1.37-7.12,4.29-14.37,8.38-21.57,12.54C234.11,164.17,233.1,164.73,232.49,165.07ZM108.66,299.24c4-2.32,8.25-5,12.72-7.21,3.8-1.85,4.67-3.58,2.17-7.48-4.85-7.56-9-15.55-13.67-23.23-1.65-2.71-1.59-4.2,1.44-5.75,4.88-2.5,9.55-5.41,14.31-8.16,10.86-6.28,10.74-6.22,4.34-17-1.68-2.84-3-3.18-5.75-1.5-7.11,4.32-14.37,8.38-21.62,12.47-1.12.63-2.5,2.49-3.77.49-2.23-3.5-4.27-7.13-6.18-10.82-.92-1.77,1-2.18,2-2.79,5.74-3.36,11.53-6.66,17.29-10,11.06-6.4,11.06-6.41,4.16-17.36a8.12,8.12,0,0,1-.5-.87c-.92-2-2.12-2.07-4-1Q89.44,211.93,67.13,224.7c-1.83,1.05-2.16,2.08-1.06,4Q86,263,105.75,297.43C106.32,298.41,106.77,299.63,108.66,299.24Z"/><path d="M461.77,177.75c-.92-23.76-10.61-50.16-36.05-68.73-14-10.25-29.87-14.41-47.21-10.33-3.16.74-4.63-.34-5.77-3a20.88,20.88,0,0,1-1.27-6.82c-.25-3.32.81-4.94,4.47-5.69,24.59-5,46.34,1.14,65.2,17,22.7,19.15,34,44.32,36.38,73.62,2.39,28.9-4.56,55.21-23,77.9-14.37,17.67-33.1,27.72-55.92,29.08-18.13,1.08-34.4-4.75-49-15.35-2-1.48-2.71-2.33,0-4.16,7.1-4.76,12.89-7,22.17-2.16,24.51,12.69,52.35,5.06,70.62-17.21C454.94,226.56,461.78,206.32,461.77,177.75Z"/><path d="M176.55,199.5c0,5.43-3.75,8.16-7.69,10.76-7.21,4.75-7.21,4.75-11.41-2.51-1.91-3.29-3.75-6.63-5.76-9.85-1.14-1.82-.91-2.93,1-3.91,3-1.49,5.73-3.34,8.74-4.68C169.42,185.75,176.67,190.71,176.55,199.5Z"/>
</svg>