<svg version="1" xmlns="http://www.w3.org/2000/svg" width="400" height="400" viewBox="0 0 300.000000 300.000000"><path d="M134.9.3c-.2.3-2.9.8-5.9 1.1-23.3 2.8-50 13.9-70.5 29.5-13 9.8-28.3 26.9-37.1 41.6-6.6 10.9-14.8 30.3-16.9 40.1-.2 1.1-1.2 5.5-2.1 9.9C1.1 128.4.6 135.2.6 148c-.1 21.6.6 27.5 5.1 43 7.3 25.4 19.9 46.8 38.2 65 21.4 21.3 44.7 34 75.6 41 16.3 3.8 44.1 3.6 63.9-.5 7.7-1.6 25.2-8 33.8-12.4l9.6-4.8 21.8 4.4c24.8 5 28.9 5.4 33.5 2.7 5.5-3.3 7.4-6.7 7.4-13.7 0-3.4-.3-7.8-.7-9.7-.4-1.9-1.4-6.8-2.2-10.7-.9-4-1.8-8.7-2.1-10.5-.3-1.8-1.3-6.6-2.1-10.5l-1.5-7.3 4.4-9.2c6.6-13.9 11.4-29.5 13.4-43.8.4-3 .8-12.5.8-21 0-19.1-.7-25-5.2-41-6-21.5-16.6-41-31.7-58.2-7.6-8.6-9.4-10.4-18.8-18C226.1 18.3 202.1 7.3 178 2.5 170.3.9 136.1-.8 134.9.3zm85.4 87c4.3 12.5 4.3 12.8 2.4 13.9-1.1.6-5.9 3.8-10.6 7.2-11.4 8.1-31 19.4-39.6 22.9-3.9 1.6-7.9 3.3-9 3.8-1.1.5-5.1 2-8.8 3.2l-6.8 2.4 3.1 5.9c1.7 3.2 4.5 7.3 6.2 9.1 1.7 1.7 2.8 3.8 2.5 4.6-.3.7-3.3 3.1-6.6 5.3-4.9 3.1-6.1 4.3-5.6 5.9.3 1.1 1.4 6.5 2.5 12 3.5 16.9 6.1 18.8 23.6 17.2 6.6-.6 11.2 1.2 13.3 5.1 1.2 2.2 1.7 1.9-10.4 6.2-3.3 1.2-6.7 2.3-7.5 2.5-.8.2-3.5 1.1-6 2-2.5.9-10.1 3.6-17 6s-16.9 5.9-22.2 7.8c-8 2.8-9.8 3.2-10.2 2-1.4-3.6-.5-6.5 3.5-10.4 4.1-4 4.1-4.2 3.6-9.2-.3-2.9-.9-6.3-1.2-7.7-.3-1.4-.7-3.6-1-5-.2-1.4-1.8-8.8-3.4-16.5-1.6-7.7-3.2-15.3-3.5-16.9-1.1-6.4-9-10.7-15.4-8.5-5.6 1.9-22.2 3.7-23.8 2.5-1.6-1.2-11.4-37.2-10.7-39.4.9-2.4 14.7-10.8 26.3-16.1 8.3-3.7 68.4-23.9 73.7-24.7 2.1-.3 5.7-1 8-1.5 2.2-.5 6.5-1.1 9.5-1.5 2.9-.3 6.4-.8 7.8-1 1.4-.2 7.5-.7 13.5-1 6.1-.4 11.2-.8 11.3-.9.2-.2 1.2-.3 2.3-.2 1.4.1 2.8 2.9 6.2 13zm25.1-8.8c.4 1.2-1.6 2.6-8.1 5.6-8.2 3.9-8.7 4-10 2.3-1.2-1.6-1.9-7.4-.8-6.2.3.2 3.5-.3 7.2-1.3 8.6-2.2 10.9-2.3 11.7-.4zm-55 139.7c-.1 1.8-.3 3.8-.3 4.4-.2 3.7-4.7 5.8-33.6 15.9-16.5 5.8-30.8 10.5-31.8 10.5-2.5 0-7.9-5.6-7.5-7.7.2-1 2.7-2.5 6.8-3.9 7.3-2.5 29.6-10.3 50-17.5 16.6-5.9 16.9-5.9 16.4-1.7z"/><path d="M172.5 88.1c-2.7 1.1-7.7 2.9-11 4-3.3 1.2-19.9 7-37 12.9-55.3 19.3-51.3 17.6-49.4 21.2 1.1 2.1 2.8 1.9 10.9-1 3-1.1 10.7-3.9 17-6.1 14.1-4.9 71.5-24.9 75.3-26.3 2.8-1 3.5-3.6 1.5-5.6-1.4-1.4-1.1-1.5-7.3.9z"/></svg>