<svg xmlns="http://www.w3.org/2000/svg" viewBox="0 0 64 64" width="64" height="64">
    <path d="M37.34,35.47a12.14,12.14,0,0,1-1.16.85,9.48,9.48,0,0,1-3.87,1.43V42.1l6.49-5.31c-.5-.41-1-.81-1.28-1.14Z"/>
    <path d="M49.15,26.67a9.46,9.46,0,0,0-2.66-1.46c-.42-.15-.75-.25-1-.32l-.28-.07h-.07l-.67-.14L44.36,24v-.06a.88.88,0,0,1-.07-.29A8.74,8.74,0,0,0,44,22.59a9,9,0,0,0-1.87-3,5.82,5.82,0,0,0-3.8-1.75,9.24,9.24,0,0,0-1.6-.07h-.6l-.69.1-.33-.61L35,17.08a7.6,7.6,0,0,0-.46-.67,10.07,10.07,0,0,0-1.79-1.88,5.72,5.72,0,0,0-6.24-.93,6.06,6.06,0,0,0-3.74,5.32,10.37,10.37,0,0,0,.08,2.63c0,.35.15.61.15.81l0,.21L23.43,24,22,23.87h-.3c-.34,0-.79,0-1.34,0a12.54,12.54,0,0,0-3.77.83,5.31,5.31,0,0,0-2.89,2.43c-.56,1.13-.75,2.8.07,5.31,1,2.91,2.37,3.93,3.7,4.21a7.37,7.37,0,0,0,4.65-1,17.19,17.19,0,0,0,2.49-1.58c.31-.24.56-.43.73-.58l.19-.16.82-.74.66.89v0l.2.23a6.59,6.59,0,0,0,.82.74,5.78,5.78,0,0,0,3,1.29h.4a6.17,6.17,0,0,0,3.75-1.17,9.11,9.11,0,0,0,1.16-.88l.3-.29.07-.07.78-.85.73.89.15.17.58.6A14.44,14.44,0,0,0,41,36a6.87,6.87,0,0,0,4.33,1.41h0c1.42-.14,3.06-1,4.54-3.81a6.11,6.11,0,0,0,1-4.31A4.25,4.25,0,0,0,49.15,26.67Z"/>
    <path d="M26,35.42l-.36.28c-.4.3-.92.67-1.5,1L30.32,42V37.67a8.8,8.8,0,0,1-3.63-1.61A9.18,9.18,0,0,1,26,35.42Z"/>
    <path d="M32,0A32,32,0,1,0,64,32,32,32,0,0,0,32,0ZM51.65,34.54c-1.76,3.17-3.91,4.6-6.16,4.82a8.35,8.35,0,0,1-5-1.36l-8.14,6.7v7h-2v-7l-8.11-6.93a8.79,8.79,0,0,1-5.36.88c-2.19-.47-4.08-2.17-5.19-5.55-1-2.83-.87-5.09,0-6.83a7.29,7.29,0,0,1,3.92-3.38,15.46,15.46,0,0,1,4.37-1h.82v-.07a13.29,13.29,0,0,1-.09-3.13,8.06,8.06,0,0,1,4.93-7,7.71,7.71,0,0,1,8.3,1.21,13,13,0,0,1,2.14,2.24c.16.22.29.41.4.58h.15a12.17,12.17,0,0,1,1.93.08,8.66,8.66,0,0,1,5,2.37,11.85,11.85,0,0,1,2.28,3.65A11.68,11.68,0,0,1,46.23,23c.27.08.61.18,1,.33a12.38,12.38,0,0,1,3.2,1.77,7,7,0,0,1,2.43,3.7A8.07,8.07,0,0,1,51.65,34.54Z"/>
</svg>