<svg xmlns="http://www.w3.org/2000/svg" viewBox="0 0 24.95 24.95">
    <polygon points="14.32 13.15 14.32 13.15 14.32 13.15 14.32 13.15"/>
    <polygon points="10.27 13.16 10.27 13.16 10.27 13.16 10.27 13.16"/>
    <polygon points="9.91 13.13 9.91 13.13 9.91 13.13 9.91 13.13"/>
    <path d="M20.41,11.3a2.55,2.55,0,0,0-.9-1.37,4.62,4.62,0,0,0-1.21-.67l-.44-.14h0v0a4.34,4.34,0,0,0-.16-.49,4.42,4.42,0,0,0-.86-1.38,3.18,3.18,0,0,0-1.87-.88,4.54,4.54,0,0,0-.73,0h-.14L13.88,6a4.87,4.87,0,0,0-.81-.85A2.87,2.87,0,0,0,10,4.72a3,3,0,0,0-1.84,2.6,5,5,0,0,0,0,1.19l0,.18-.47,0a5.83,5.83,0,0,0-1.66.37A2.71,2.71,0,0,0,4.6,10.33a3.3,3.3,0,0,0,0,2.56A2.7,2.7,0,0,0,6.51,15a3.35,3.35,0,0,0,2.08-.37l3.29,2.81v2.78h.5V17.41l3.33-2.73a3.17,3.17,0,0,0,2,.57A3,3,0,0,0,20,13.44,3,3,0,0,0,20.41,11.3Zm-8.53,5.45L9.07,14.34a8.38,8.38,0,0,0,.75-.49l.23-.19a3.42,3.42,0,0,0,.36.33,3.18,3.18,0,0,0,1.47.63Zm.5,0V14.62A3.45,3.45,0,0,0,14,14.08a4.5,4.5,0,0,0,.53-.41h0l.16.17a7.16,7.16,0,0,0,.63.54Zm7.15-3.57a2.55,2.55,0,0,1-1.91,1.56,2.82,2.82,0,0,1-1.8-.58,5.85,5.85,0,0,1-.82-.68l-.23-.24-.06-.07v0h0l-.18-.22-.19.21h0l0,0-.12.12a3.77,3.77,0,0,1-.47.36,2.61,2.61,0,0,1-1.55.48H12a2.45,2.45,0,0,1-1.26-.53,2.78,2.78,0,0,1-.34-.31l-.08-.09,0,0h0l-.16-.22-.2.19h0l0,0-.08.07-.29.23a6.91,6.91,0,0,1-1,.63,3,3,0,0,1-1.91.4c-.58-.12-1.17-.57-1.55-1.74a2.81,2.81,0,0,1,0-2.18,2.21,2.21,0,0,1,1.2-1,5.1,5.1,0,0,1,1.51-.33l.53,0h.2l.36,0-.1-.34h0v0l0-.09c0-.08,0-.19-.06-.33a4.25,4.25,0,0,1,0-1.06,2.51,2.51,0,0,1,1.55-2.19,2.38,2.38,0,0,1,2.58.38,4.14,4.14,0,0,1,.72.76l.19.27,0,.08v0h0l.08.15.17,0h.25a3.82,3.82,0,0,1,.65,0,2.47,2.47,0,0,1,1.57.73,3.69,3.69,0,0,1,.76,1.22,3.62,3.62,0,0,1,.14.43l0,.12v0h0l0,.17.17,0h0l.11,0,.4.13a3.89,3.89,0,0,1,1.08.59,1.85,1.85,0,0,1,.73,1.09A2.53,2.53,0,0,1,19.54,13.19Z"/>
    <circlec x="17.39" cy="9.36"/>
    <path d="M12.48.4A12.08,12.08,0,1,1,.4,12.48,12.09,12.09,0,0,1,12.48.4m0-.4A12.48,12.48,0,1,0,25,12.48,12.48,12.48,0,0,0,12.48,0Z"/>
</svg>
