<svg width="42" height="42" viewBox="0 0 42 42" version="1.1" xmlns="http://www.w3.org/2000/svg" xmlns:xlink="http://www.w3.org/1999/xlink">
<title>Vector 6</title>
<desc>Created using Figma</desc>
<g id="Canvas" transform="translate(-5880 11791)">
<g id="Vector 6">
<use xlink:href="#path0_stroke" transform="translate(5881 -11789)" fill="#FFFFFF"/>
</g>
</g>
<defs>
<path id="path0_stroke" d="M 14.0382 22.0531L 14.8398 21.4553L 14.1794 20.5697L 13.3638 21.3147L 14.0382 22.0531ZM 18.8354 24.7715L 18.953 23.7785L 18.8354 24.7715ZM 25.3917 22.0531L 26.1651 21.4192L 25.4323 20.5251L 24.6531 21.379L 25.3917 22.0531ZM 38.824 22.0531L 37.9506 21.5662L 38.824 22.0531ZM 33.3871 11.8189L 32.3997 11.9766L 32.5077 12.6534L 33.178 12.7968L 33.3871 11.8189ZM 30.8286 6.86174L 31.5568 6.17637L 30.8286 6.86174ZM 23.9525 4.78293L 23.0754 5.26329L 23.41 5.87421L 24.0991 5.77213L 23.9525 4.78293ZM 14.0382 0.625298L 13.6386 -0.2914L 14.0382 0.625298ZM 10.0404 10.8595L 9.97883 11.8576L 11.4075 11.9458L 10.9988 10.574L 10.0404 10.8595ZM 0.60582 20.7738L 1.55591 20.4618L 0.60582 20.7738ZM 28.4189 24.7715L 28.9819 23.945L 28.4189 24.7715ZM 14.0382 22.0531C 13.2365 22.6509 13.2368 22.6512 13.237 22.6515C 13.2371 22.6516 13.2373 22.652 13.2375 22.6522C 13.2377 22.6525 13.2382 22.6532 13.2386 22.6537C 13.2391 22.6544 13.2404 22.656 13.2414 22.6574C 13.2429 22.6593 13.246 22.6634 13.2489 22.6673C 13.2536 22.6734 13.2626 22.685 13.272 22.697C 13.2883 22.7177 13.317 22.7537 13.3497 22.7932C 13.4099 22.8657 13.5104 22.9821 13.6306 23.1108C 13.8592 23.3545 14.2319 23.7151 14.6851 24.068C 15.5629 24.7445 17.0048 25.5419 18.7177 25.7646L 18.953 23.7785C 17.6277 23.6413 16.671 23.0795 15.9097 22.4867C 15.5434 22.205 15.2865 21.9535 15.0903 21.7436C 14.9982 21.6456 14.9376 21.5749 14.8896 21.517C 14.8683 21.4914 14.8563 21.4763 14.8454 21.4623C 14.8411 21.457 14.8399 21.4553 14.8377 21.4524C 14.8372 21.4518 14.8373 21.4519 14.8375 21.4522C 14.8373 21.452 14.8384 21.4534 14.8383 21.4533C 14.8382 21.4531 14.8391 21.4543 14.839 21.4542C 14.8391 21.4544 14.8393 21.4546 14.8394 21.4547C 14.8396 21.455 14.8398 21.4553 14.0382 22.0531ZM 39.6975 22.5399C 40.9132 20.3589 41.2208 18.4552 40.8565 16.8176C 40.4842 15.2633 39.4694 13.963 38.4259 13.1171C 37.3675 12.2759 36.1247 11.6838 35.2257 11.3429C 34.7654 11.1694 34.3526 11.0412 34.0767 10.9636C 33.9338 10.9235 33.8126 10.8923 33.7356 10.8735C 33.6947 10.8635 33.6596 10.8553 33.6385 10.8504C 33.6268 10.8478 33.6162 10.8454 33.6103 10.8441C 33.6068 10.8433 33.6033 10.8425 33.6015 10.8422C 33.6003 10.8419 33.599 10.8416 33.5984 10.8415C 33.598 10.8414 33.5975 10.8413 33.5973 10.8412C 33.5968 10.8411 33.5963 10.841 33.3871 11.8189C 33.178 12.7968 33.1776 12.7967 33.1772 12.7966C 33.1772 12.7966 33.1769 12.7966 33.1768 12.7965C 33.1767 12.7965 33.1764 12.7965 33.1764 12.7965C 33.1771 12.7966 33.1772 12.7966 33.1784 12.7969C 33.182 12.7977 33.1856 12.7985 33.1926 12.8001C 33.2089 12.8038 33.2292 12.8086 33.2601 12.8161C 33.3267 12.8324 33.4149 12.855 33.5354 12.8889C 33.7863 12.9594 34.1158 13.0609 34.5182 13.2136C 35.3444 13.5253 36.3078 13.9721 37.1734 14.6763C 38.0538 15.3758 38.6805 16.1275 38.9042 17.2519C 39.1358 18.2931 38.9936 19.6949 37.9506 21.5662L 39.6975 22.5399ZM 33.3871 11.8189C 34.3746 11.6612 34.3746 11.6609 34.3745 11.6606C 34.3745 11.6605 34.3745 11.6601 34.3744 11.6599C 34.3744 11.6596 34.3742 11.6588 34.3742 11.6583C 34.374 11.6575 34.3737 11.6558 34.3735 11.6543C 34.3731 11.6522 34.3724 11.6477 34.3717 11.6434C 34.3705 11.6365 34.3683 11.6237 34.3658 11.61C 34.3615 11.5862 34.3538 11.5453 34.3443 11.4989C 34.3268 11.4131 34.2963 11.275 34.2555 11.1147C 34.1772 10.8089 34.0388 10.3428 33.8373 9.82439C 33.4435 8.81973 32.7089 7.41461 31.5568 6.17637L 30.1004 7.54712C 31.0763 8.56982 31.6209 9.64328 31.9744 10.552C 32.1465 10.9902 32.2489 11.3396 32.3177 11.6099C 32.3505 11.7377 32.3703 11.8279 32.3846 11.8984C 32.3911 11.9302 32.3947 11.9494 32.3978 11.9661C 32.399 11.9728 32.3994 11.9754 32.4 11.9788C 32.4002 11.9797 32.4002 11.9801 32.4001 11.9796C 32.4002 11.9798 32.4 11.9785 32.4 11.9786C 32.4 11.9788 32.3998 11.9776 32.3998 11.9777C 32.3998 11.9776 32.3998 11.9773 32.3997 11.9772C 32.3997 11.9769 32.3997 11.9766 33.3871 11.8189ZM 31.5568 6.17637C 30.0759 4.65242 28.0394 4.00493 26.5586 3.81108C 25.7994 3.71527 25.0962 3.70809 24.6278 3.72623C 24.385 3.73599 24.1767 3.75257 24.0445 3.76562C 23.9744 3.77259 23.9142 3.77958 23.8779 3.78409C 23.8578 3.7866 23.8397 3.789 23.8295 3.79039C 23.8235 3.79121 23.8176 3.79205 23.8146 3.79247C 23.8126 3.79276 23.8105 3.79307 23.8095 3.79321C 23.8088 3.79331 23.8079 3.79344 23.8075 3.7935C 23.8072 3.79354 23.8068 3.7936 23.8067 3.79362C 23.8063 3.79367 23.806 3.79373 23.9525 4.78293C 24.0991 5.77213 24.0987 5.77218 24.0984 5.77222C 24.0984 5.77224 24.0981 5.77228 24.0979 5.7723C 24.098 5.77229 24.0969 5.77245 24.0971 5.77242C 24.0971 5.77243 24.0966 5.77249 24.0967 5.77248C 24.0979 5.77231 24.0982 5.77227 24.1004 5.77196C 24.1067 5.7711 24.1132 5.77024 24.1254 5.76872C 24.1536 5.7652 24.1886 5.7611 24.2415 5.75589C 24.3554 5.74457 24.5045 5.73242 24.7064 5.72469C 25.1275 5.70785 25.6636 5.71066 26.3036 5.79475C 27.6211 5.96069 29.0227 6.35261 30.1004 7.54712L 31.5568 6.17637ZM 23.9525 4.78293C 24.8296 4.30257 24.8294 4.30217 24.8291 4.30175C 24.829 4.30158 24.8288 4.30113 24.8286 4.30078C 24.8284 4.30032 24.8278 4.29927 24.8273 4.29836C 24.8265 4.29703 24.825 4.2943 24.8236 4.29166C 24.8212 4.28736 24.8167 4.27941 24.8119 4.27093C 24.8035 4.25598 24.7889 4.23055 24.7719 4.20153C 24.7403 4.1476 24.6887 4.06152 24.6256 3.96121C 24.5046 3.76914 24.3118 3.47935 24.0717 3.15709C 23.6033 2.53079 22.8575 1.66616 21.9346 0.917466C 20.0398 -0.608303 17.1689 -1.83022 13.6386 -0.2914L 14.4377 1.542C 17.0728 0.393385 19.1591 1.25029 20.6802 2.47519C 21.4651 3.10183 22.0419 3.7805 22.4691 4.35367C 22.6768 4.63114 22.8251 4.85513 22.9332 5.0269C 22.9846 5.10851 23.0196 5.16687 23.0459 5.2119C 23.0579 5.23236 23.0651 5.24504 23.0712 5.25582C 23.0737 5.2602 23.0747 5.26203 23.076 5.2643C 23.0764 5.26494 23.0766 5.26534 23.0764 5.26501C 23.0764 5.26509 23.0761 5.26442 23.0761 5.26445C 23.076 5.26431 23.0758 5.26402 23.0758 5.26395C 23.0756 5.26363 23.0754 5.26329 23.9525 4.78293ZM 13.6386 -0.2914C 10.0843 1.25787 8.94827 4.21317 8.70548 6.66319C 8.59071 7.86315 8.68236 9.01139 8.79921 9.79149C 8.85991 10.1922 8.93074 10.5352 8.98243 10.7578C 9.0095 10.8739 9.03447 10.9717 9.05067 11.0324C 9.0594 11.065 9.06726 11.0934 9.07196 11.11C 9.07463 11.1194 9.07716 11.1282 9.07853 11.1329C 9.07938 11.1359 9.08026 11.1389 9.08069 11.1403C 9.08099 11.1413 9.08133 11.1425 9.08148 11.143C 9.08159 11.1434 9.08174 11.1439 9.08179 11.1441C 9.08193 11.1445 9.08206 11.145 10.0404 10.8595C 10.9988 10.574 10.9989 10.5744 10.999 10.5747C 10.9991 10.5748 10.9992 10.5751 10.9992 10.5753C 10.9992 10.5752 10.9994 10.5759 10.9994 10.5759C 10.9995 10.5762 10.9994 10.5758 10.9992 10.5751C 10.9984 10.5726 10.9978 10.5705 10.9965 10.5657C 10.9931 10.5537 10.9891 10.5395 10.983 10.5164C 10.9694 10.4657 10.9524 10.3994 10.9304 10.3047C 10.884 10.1056 10.8287 9.84017 10.7769 9.49383C 10.6689 8.77978 10.5906 7.87918 10.6957 6.86041C 10.8927 4.87295 11.7555 2.71117 14.4377 1.542L 13.6386 -0.2914ZM 10.0404 10.8595C 10.1021 9.86137 10.1016 9.86134 10.1011 9.86131C 10.1009 9.86129 10.1003 9.86126 10.0999 9.86123C 10.0992 9.86119 10.0978 9.86111 10.0965 9.86103C 10.0944 9.86091 10.0905 9.86068 10.0863 9.86045C 10.079 9.86005 10.0664 9.85938 10.0519 9.85868C 10.0252 9.85738 9.98205 9.85549 9.93029 9.8537C 9.83126 9.8503 9.67797 9.8466 9.49345 9.84604C 9.13401 9.84514 8.60068 9.857 7.99207 9.90511C 6.79549 10.0012 5.13583 10.2656 3.62677 10.8727C 2.09543 11.4962 0.5682 12.5329 -0.297698 14.2557C -1.17027 15.9917 -1.27896 18.2393 -0.344269 21.0858L 1.55591 20.4618C 0.731564 17.9514 0.922679 16.2812 1.48928 15.1539C 2.06256 14.0133 3.11386 13.241 4.38094 12.7251C 5.67029 12.1929 7.02892 11.9876 8.15104 11.8988C 8.70178 11.8544 9.15288 11.8451 9.48806 11.846C 9.65084 11.8464 9.77239 11.8494 9.86139 11.8525C 9.90364 11.854 9.93274 11.8552 9.95485 11.8563C 9.96482 11.8568 9.97075 11.8571 9.97587 11.8574C 9.97789 11.8575 9.97862 11.8576 9.97965 11.8576C 9.9799 11.8576 9.97995 11.8576 9.97982 11.8576C 9.97975 11.8576 9.97951 11.8576 9.97947 11.8576C 9.97918 11.8576 9.97883 11.8576 10.0404 10.8595ZM 18.7177 25.7646C 18.9 25.786 19.1003 25.8013 19.2781 25.808L 19.3521 23.8094C 19.2134 23.8045 19.0937 23.7954 18.953 23.7785L 18.7177 25.7646ZM 19.2781 25.808C 21.231 25.8536 23.0366 25.061 24.189 24.3181C 24.7785 23.9345 25.2756 23.5304 25.5927 23.2475C 25.7572 23.1004 25.8937 22.969 25.9786 22.8842C 26.0237 22.8391 26.0621 22.7995 26.0849 22.7756C 26.0976 22.7624 26.109 22.7502 26.1154 22.7434C 26.1192 22.7393 26.1229 22.7352 26.1248 22.7332C 26.1261 22.7318 26.1275 22.7303 26.1281 22.7297C 26.1285 22.7292 26.1291 22.7285 26.1293 22.7283C 26.1295 22.7281 26.1298 22.7278 26.1299 22.7277C 26.1301 22.7274 26.1303 22.7272 25.3917 22.0531C 24.6531 21.379 24.6533 21.3788 24.6535 21.3785C 24.6535 21.3785 24.6537 21.3783 24.6538 21.3781C 24.6538 21.3782 24.6545 21.3774 24.6544 21.3776C 24.6544 21.3775 24.6548 21.3771 24.6547 21.3772C 24.6541 21.3779 24.654 21.3779 24.6527 21.3793C 24.6489 21.3834 24.6451 21.3874 24.6377 21.3952C 24.6203 21.4135 24.5988 21.4357 24.5652 21.4692C 24.4927 21.5417 24.3967 21.6345 24.2607 21.7556C 23.9769 22.0094 23.6008 22.3181 23.1019 22.6393C 22.0774 23.3061 20.8446 23.8913 19.3521 23.8094L 19.2781 25.808ZM 18.3151 24.8087L 18.3151 32.2259L 20.3151 32.2259L 20.3151 24.8087L 18.3151 24.8087ZM 18.3151 32.2259L 18.3151 39.6431L 20.3151 39.6431L 20.3151 32.2259L 18.3151 32.2259ZM 25.3917 22.0531C 24.6183 22.687 24.6184 22.6871 24.6185 22.6873C 24.6186 22.6873 24.6187 22.6875 24.6188 22.6876C 24.6189 22.6877 24.6191 22.688 24.6193 22.6883C 24.6196 22.6886 24.6202 22.6894 24.6208 22.69C 24.6217 22.6911 24.6234 22.6932 24.6251 22.6952C 24.628 22.6988 24.6332 22.705 24.639 22.712C 24.6495 22.7245 24.667 22.7453 24.6879 22.7696C 24.7272 22.8156 24.7898 22.8875 24.8664 22.9729C 25.0149 23.1381 25.2437 23.3836 25.5233 23.6608C 26.0715 24.2034 26.8975 24.9425 27.856 25.598L 28.9819 23.945C 28.1314 23.3685 27.4438 22.7484 26.9307 22.2398C 26.6796 21.9914 26.4907 21.7883 26.3542 21.6363C 26.2884 21.5631 26.2416 21.5092 26.2073 21.4691C 26.1913 21.4504 26.1808 21.438 26.1726 21.4282C 26.1691 21.4239 26.1672 21.4217 26.1654 21.4195C 26.1648 21.4188 26.1647 21.4187 26.1644 21.4183C 26.1643 21.4182 26.1645 21.4184 26.1645 21.4185C 26.1645 21.4184 26.1648 21.4188 26.1647 21.4187C 26.1648 21.4188 26.1649 21.4189 26.1649 21.4189C 26.165 21.419 26.1651 21.4192 25.3917 22.0531ZM 27.856 25.598C 29.3451 26.6123 31.3577 27.5691 33.5339 27.3593C 35.7863 27.1422 37.9311 25.7092 39.6975 22.5399L 37.9506 21.5662C 36.4024 24.3437 34.7572 25.2321 33.3419 25.3685C 31.8504 25.5123 30.3178 24.855 28.9819 23.945L 27.856 25.598ZM -0.344269 21.0858C 0.76562 24.4658 2.62187 26.1705 4.84869 26.633C 6.96627 27.0728 9.14393 26.3217 10.8177 25.4606L 9.90272 23.6821C 8.36002 24.4758 6.69409 24.9736 5.25539 24.6748C 3.92593 24.3987 2.51321 23.3772 1.55591 20.4618L -0.344269 21.0858ZM 10.8177 25.4606C 11.9267 24.8878 12.9174 24.2116 13.5914 23.7043C 13.9342 23.4459 14.2171 23.2161 14.4034 23.0596C 14.4991 22.9791 14.5769 22.9117 14.6266 22.8681C 14.6526 22.8452 14.6742 22.826 14.6875 22.8141C 14.6947 22.8077 14.701 22.802 14.7046 22.7987C 14.7067 22.7968 14.7087 22.795 14.7097 22.794C 14.7104 22.7934 14.7111 22.7928 14.7114 22.7925C 14.7117 22.7923 14.712 22.792 14.7121 22.7919C 14.7122 22.7918 14.7123 22.7917 14.7123 22.7917C 14.7125 22.7915 14.7126 22.7914 14.0382 22.0531C 13.3638 21.3147 13.3639 21.3146 13.364 21.3145C 13.364 21.3145 13.3641 21.3144 13.3641 21.3144C 13.3641 21.3144 13.3644 21.3142 13.3643 21.3142C 13.3644 21.3142 13.3644 21.3141 13.3643 21.3142C 13.3638 21.3146 13.3636 21.3149 13.3626 21.3158C 13.3602 21.318 13.3574 21.3205 13.3526 21.3248C 13.3418 21.3345 13.3276 21.3471 13.3066 21.3655C 13.2622 21.4045 13.201 21.4576 13.1166 21.5285C 12.9428 21.6746 12.7015 21.871 12.3883 22.1066C 11.7505 22.5872 10.9022 23.1701 9.90272 23.6821L 10.8177 25.4606ZM 19.9648 31.4657L 11.0099 23.8112L 9.71043 25.3315L 18.6653 32.986L 19.9648 31.4657ZM 19.9486 32.9996L 29.0524 25.5452L 27.7854 23.9978L 18.6816 31.4522L 19.9486 32.9996Z"/>
</defs>
</svg>
