<svg width="42" height="42" viewBox="0 0 42 38" version="1.1" xmlns="http://www.w3.org/2000/svg" xmlns:xlink="http://www.w3.org/1999/xlink">
<title>Group</title>
<desc>Created using Figma</desc>
<g id="Canvas" transform="translate(-6180 11789)">
<g id="Group">
<g id="Vector 10">
<use xlink:href="#path0_fill" transform="translate(6189.84 -11756.9)"/>
</g>
<g id="Vector 9">
<use xlink:href="#path1_fill" transform="translate(6191.11 -11769.7)"/>
<use xlink:href="#path2_fill" transform="translate(6191.11 -11769.7)"/>
<use xlink:href="#path3_stroke" transform="translate(6191.11 -11769.7)"/>
</g>
<g id="Vector 8">
<use xlink:href="#path4_stroke" transform="translate(6181 -11787)"/>
</g>
<g id="Vector 7">
<use xlink:href="#path5_stroke" transform="translate(6186.89 -11781.3)"/>
</g>
</g>
</g>
<defs>
<path id="path0_fill" fill-rule="evenodd" d="M 0 2.73684C 0 4.63158 1.47368 5.05263 1.47368 5.05263L 21.2632 5.05263C 21.2632 5.05263 22.5263 4.42105 22.5263 2.73684C 22.5263 0.842105 21.2632 0 21.2632 0L 1.47368 0C 1.47368 0 0 0.631579 0 2.73684ZM 2.23684 1.26316L 1.26316 1.26316L 1.26316 3.36842L 2.23684 3.36842L 2.23684 1.26316ZM 3.15789 1.26316L 3.15789 2.31579L 4 2.31579L 4 1.26316L 3.15789 1.26316ZM 5.89474 3.36842L 5.05263 3.36842L 5.05263 1.26316L 5.89474 1.26316L 5.89474 3.36842ZM 6.94737 1.26316L 7.78947 1.26316L 7.78947 2.31579L 6.94737 2.31579L 6.94737 1.26316ZM 9.68421 3.36842L 8.8421 3.36842L 8.8421 1.26316L 9.68421 1.26316L 9.68421 3.36842ZM 10.7368 1.26316L 10.7368 2.31579L 11.5789 2.31579L 11.5789 1.26316L 10.7368 1.26316ZM 13.4737 3.36842L 12.6316 3.36842L 12.6316 1.26316L 13.4737 1.26316L 13.4737 3.36842ZM 14.5263 1.26316L 14.5263 2.31579L 15.3684 2.31579L 15.3684 1.26316L 14.5263 1.26316ZM 16.2105 3.57895L 16.2105 1.26316L 17.2632 1.26316L 17.2632 3.57895L 16.2105 3.57895ZM 18.3158 1.26316L 18.3158 2.31579L 19.1579 2.31579L 19.1579 1.26316L 18.3158 1.26316ZM 21.0526 3.36842L 20.2105 3.36842L 20.2105 1.26316L 21.0526 1.26316L 21.0526 3.36842Z"/>
<path id="path1_fill" d="M 0 11.1579L 0 10.1053L 8.8421 10.1053L 8.8421 11.1579L 0 11.1579Z"/>
<path id="path2_fill" fill-rule="evenodd" d="M 16.4211 1.26316L 13.6842 0L 10.1053 7.53463L 12.8211 8.8421L 16.4211 1.26316ZM 9.81955 10.3158L 10.8421 10.7368L 9.89474 11.3684L 9.81955 10.3158Z"/>
<path id="path3_stroke" d="M 0 10.1053L 0 9.98026L -0.125 9.98026L -0.125 10.1053L 0 10.1053ZM 0 11.1579L -0.125 11.1579L -0.125 11.2829L 0 11.2829L 0 11.1579ZM 8.8421 11.1579L 8.8421 11.2829L 8.9671 11.2829L 8.9671 11.1579L 8.8421 11.1579ZM 8.8421 10.1053L 8.9671 10.1053L 8.9671 9.98026L 8.8421 9.98026L 8.8421 10.1053ZM 9.68421 8.42105L 9.5713 8.36742L 9.55718 8.39714L 9.55953 8.42996L 9.68421 8.42105ZM 9.89474 11.3684L 9.77005 11.3773L 9.78536 11.5916L 9.96407 11.4724L 9.89474 11.3684ZM 12.4211 9.68421L 12.4904 9.78822L 12.5191 9.76905L 12.534 9.73784L 12.4211 9.68421ZM 13.6842 0L 13.7366 -0.113495L 13.6243 -0.165302L 13.5713 -0.0536321L 13.6842 0ZM 16.4211 1.26316L 16.534 1.31679L 16.5882 1.20263L 16.4734 1.14966L 16.4211 1.26316ZM 9.81955 10.3158L 9.69487 10.3247L 9.81955 10.3158ZM 12.8211 8.8421L 12.934 8.89574L 12.8211 8.8421ZM -0.125 10.1053L -0.125 11.1579L 0.125 11.1579L 0.125 10.1053L -0.125 10.1053ZM 0 11.2829L 8.8421 11.2829L 8.8421 11.0329L 0 11.0329L 0 11.2829ZM 8.9671 11.1579L 8.9671 10.1053L 8.7171 10.1053L 8.7171 11.1579L 8.9671 11.1579ZM 8.8421 9.98026L 0 9.98026L 0 10.2303L 8.8421 10.2303L 8.8421 9.98026ZM 12.4734 9.57071L 9.73659 8.30756L 9.63183 8.53455L 12.3687 9.7977L 12.4734 9.57071ZM 13.6318 0.113495L 16.3687 1.37665L 16.4734 1.14966L 13.7366 -0.113495L 13.6318 0.113495ZM 9.79712 8.47468L 10.0076 8.03147L 9.78183 7.92421L 9.5713 8.36742L 9.79712 8.47468ZM 12.5081 9.20953L 12.3081 9.63058L 12.534 9.73784L 12.734 9.31679L 12.5081 9.20953ZM 9.55953 8.42996L 9.69487 10.3247L 9.94423 10.3069L 9.80889 8.41215L 9.55953 8.42996ZM 9.69487 10.3247L 9.77005 11.3773L 10.0194 11.3595L 9.94423 10.3069L 9.69487 10.3247ZM 9.96407 11.4724L 10.9114 10.8408L 10.7728 10.6328L 9.8254 11.2644L 9.96407 11.4724ZM 10.9114 10.8408L 12.4904 9.78822L 12.3517 9.5802L 10.7728 10.6328L 10.9114 10.8408ZM 9.77196 10.4314L 10.7945 10.8524L 10.8897 10.6213L 9.86714 10.2002L 9.77196 10.4314ZM 16.3081 1.20953L 12.7081 8.78847L 12.934 8.89574L 16.534 1.31679L 16.3081 1.20953ZM 12.7081 8.78847L 12.5081 9.20953L 12.734 9.31679L 12.934 8.89574L 12.7081 8.78847ZM 10.0076 8.03147L 10.2182 7.58826L 9.99235 7.48099L 9.78183 7.92421L 10.0076 8.03147ZM 10.2182 7.58826L 13.7971 0.0536321L 13.5713 -0.0536321L 9.99235 7.48099L 10.2182 7.58826ZM 12.8753 8.72948L 10.1595 7.422L 10.051 7.64725L 12.7668 8.95473L 12.8753 8.72948Z"/>
<path id="path4_stroke" d="M 20 0L 20.6837 -0.729777L 20 -1.37028L 19.3163 -0.729777L 20 0ZM 39.3163 19.4666C 39.7194 19.8442 40.3522 19.8236 40.7298 19.4205C 41.1074 19.0175 41.0867 18.3847 40.6837 18.0071L 39.3163 19.4666ZM -0.683686 18.0071C -1.08673 18.3847 -1.10737 19.0175 -0.729777 19.4205C -0.352188 19.8236 0.280641 19.8442 0.683686 19.4666L -0.683686 18.0071ZM 19.3163 0.729777L 39.3163 19.4666L 40.6837 18.0071L 20.6837 -0.729777L 19.3163 0.729777ZM 19.3163 -0.729777L -0.683686 18.0071L 0.683686 19.4666L 20.6837 0.729777L 19.3163 -0.729777Z"/>
<path id="path5_stroke" d="M 14.1053 0L 14.7785 -0.73944L 14.1053 -1.35237L 13.432 -0.73944L 14.1053 0ZM 0 12.8421L -0.673222 12.1027L -1 12.4002L -1 12.8421L 0 12.8421ZM 28.2105 12.8421L 29.2105 12.8421L 29.2105 12.4002L 28.8837 12.1027L 28.2105 12.8421ZM 13.432 -0.73944L -0.673222 12.1027L 0.673222 13.5815L 14.7785 0.73944L 13.432 -0.73944ZM -1 12.8421L -1 29.4737L 1 29.4737L 1 12.8421L -1 12.8421ZM 13.432 0.73944L 27.5373 13.5815L 28.8837 12.1027L 14.7785 -0.73944L 13.432 0.73944ZM 27.2105 12.8421L 27.2105 29.4737L 29.2105 29.4737L 29.2105 12.8421L 27.2105 12.8421Z"/>
</defs>
</svg>
