<svg xmlns="http://www.w3.org/2000/svg" viewBox="0 0 64 64" width="64" height="64">
    <rect x="35.37" y="45.36" width="0.84" height="1.05"/>
    <rect x="33.47" y="45.36" width="0.84" height="2.11"/>
    <rect x="31.58" y="45.36" width="0.84" height="1.05"/>
    <rect x="37.05" y="45.36" width="1.05" height="2.32"/>
    <rect x="41.05" y="45.36" width="0.84" height="2.11"/>
    <rect x="39.16" y="45.36" width="0.84" height="1.05"/>
    <rect x="29.68" y="45.36" width="0.84" height="2.11"/>
    <rect x="24" y="45.36" width="0.84" height="1.05"/>
    <rect x="22.1" y="45.36" width="0.97" height="2.11"/>
    <rect x="27.79" y="45.36" width="0.84" height="1.05"/>
    <rect x="25.89" y="45.36" width="0.84" height="2.11"/>
    <polygon points="31.93 39.92 32.05 41.53 32.94 41.9 34.28 41 31.93 39.92"/>
    <polygon points="34.47 40.82 34.62 40.51 34.77 40.2 32.27 39 32.12 39.33 31.96 39.66 34.47 40.82"/>
    <path d="M32,0A32,32,0,1,0,64,32,32,32,0,0,0,32,0ZM42.1,49.15H22.31a2.27,2.27,0,0,1-1.47-2.32,2.85,2.85,0,0,1,1.47-2.74H42.1a3.33,3.33,0,0,1,1.26,2.74A2.58,2.58,0,0,1,42.1,49.15ZM22,42.58v-1.3h9.09v1.3Zm9.68-2.89.22-.47,3.84-8.09,3,1.37-4.07,8.57L31.9,42.89ZM47.1,49.17h-2V33L32,21.05,18.89,33V49.17h-2V32.1L32,18.35,47.1,32.1Zm5.63-15.75a1,1,0,0,1-1.41,0L32,15.37,12.68,33.47A1,1,0,0,1,11.32,32L32,12.63,52.68,32A1,1,0,0,1,52.73,33.42Z"/>
</svg>
