<svg width="42" height="42" viewBox="0 0 40 36" version="1.1" xmlns="http://www.w3.org/2000/svg" xmlns:xlink="http://www.w3.org/1999/xlink">
<title>Group</title>
<desc>Created using Figma</desc>
<g id="Canvas" transform="translate(-6456 11787)">
<g id="Group">
<g id="Vector 12">
<use xlink:href="#path0_fill" transform="translate(6459.79 -11785.9)"/>
</g>
<g id="Rectangle 46">
<use xlink:href="#path1_fill" transform="matrix(0.778937 0.627103 -0.627103 0.778937 6459.04 -11776.4)"/>
</g>
<g id="Rectangle 44">
<use xlink:href="#path2_fill" transform="matrix(0.707107 0.707107 -0.707107 0.707107 6486.68 -11787)"/>
</g>
<g id="Rectangle 45">
<use xlink:href="#path3_fill" transform="matrix(0.707107 -0.707107 0.707107 0.707107 6461.05 -11755.1)"/>
</g>
</g>
</g>
<defs>
<path id="path0_fill" d="M 5.49101 13.762L 4.3928 14.8602L 0 11.0165L 1.0982 9.9183L 0.583278 8.8201L 8.22651 0.583585L 9.33471 1.68179C 9.33471 1.68179 11.4396 -0.281833 13.7275 0.0344902C 14.9785 0.20745 16.473 1.13269 16.473 1.13269L 13.1784 4.97639L 14.5959 6.6237L 10.982 9.9183L 32.3969 29.6859L 27.7592 33.6852L 8.22651 12.8787L 6.58921 14.5772L 5.49101 13.762Z"/>
<path id="path1_fill" d="M 0 2C 0 0.895431 0.895431 0 2 0L 7.09888 0C 8.20345 0 9.09888 0.895431 9.09888 2L 9.09888 2.84424C 9.09888 3.94881 8.20345 4.84424 7.09888 4.84424L 2 4.84424C 0.895431 4.84424 0 3.94881 0 2.84424L 0 2Z"/>
<path id="path2_fill" d="M 13.1784 6.58921L 13.1784 4.64062C 13.1784 2.07768 11.1007 0 8.53779 0L 8.23037 4.72385L 4.55005 4.766L 4.67949 0C 2.09508 0 0 2.09508 0 4.67949L 0 6.58921C 0 10.2283 2.95009 13.1784 6.58921 13.1784C 10.2283 13.1784 13.1784 10.2283 13.1784 6.58921Z"/>
<path id="path3_fill" d="M 0 2.1964C 0 0.983363 0.983363 0 2.1964 0L 27.8309 0L 27.8309 4.3928L 2.1964 4.3928C 0.983363 4.3928 0 3.40944 0 2.1964Z"/>
</defs>
</svg>
