<svg xmlns="http://www.w3.org/2000/svg" viewBox="0 0 64 64" width="64" height="64">
    <path d="M32,0A32,32,0,1,0,64,32,32,32,0,0,0,32,0ZM48.72,26.6,47.34,28a6.59,6.59,0,0,1-7.64,1.22l.13.13-4,4L48.19,44.79l-4.64,4-11.22-12L21.71,47.45a2.2,2.2,0,0,1-3.11-3.11L29.32,33.63,24,28l-1.64,1.7-1.1-.82-.45.45a2,2,0,0,1,0,2.55l-.53.66a2,2,0,0,1-2.81.3l-4-3.2a2,2,0,0,1-.3-2.81l.53-.66a2,2,0,0,1,2.48-.52l.62-.62-.51-1.1L24,15.68l1.11,1.1s2.1-2,4.39-1.65a8.73,8.73,0,0,1,2.75,1.1L29,20.08l1.42,1.65L26.77,25l5.8,5.36,4.15-4.15.07.07A6.59,6.59,0,0,1,38,18.66l1.35-1.35a4.68,4.68,0,0,1,6.62,0l-3.46,3.28,2.63,2.57L48.72,20A4.64,4.64,0,0,1,48.72,26.6Z"/>
</svg>
