<svg xmlns="http://www.w3.org/2000/svg" viewBox="0 0 24.95 24.95">
    <path d="M18.39,11l.54-.54a1.81,1.81,0,0,0,0-2.56L17.54,9.08l-1-1,1.35-1.28a1.83,1.83,0,0,0-2.59,0l-.53.53a2.57,2.57,0,0,0-.51,2.9l-1.63,1.63L10.36,9.77l1.41-1.29-.55-.64,1.29-1.5a3.41,3.41,0,0,0-1.07-.43,2.43,2.43,0,0,0-1.72.64l-.43-.43-3,3.22.2.43L6.23,10a.94.94,0,0,0-.91,1.62l1.29,1A.94.94,0,0,0,8,11.48l.21-.21.43.32.64-.66,2.06,2.19L7.17,17.29a.86.86,0,1,0,1.21,1.21l4.13-4.13,4.4,4.69,1.81-1.56L13.87,13l1.57-1.57A2.57,2.57,0,0,0,18.39,11Z"/>
    <path d="M12.48.4A12.08,12.08,0,1,1,.4,12.48,12.09,12.09,0,0,1,12.48.4m0-.4A12.48,12.48,0,1,0,25,12.48,12.48,12.48,0,0,0,12.48,0Z"/>
</svg>
