<svg xmlns="http://www.w3.org/2000/svg" viewBox="0 0 64 64" width="64" height="64">
    <rect x="22.99" y="38.02" width="3" height="4"/>
    <rect x="41.99" y="43.02" width="3" height="3"/>
    <rect x="41.99" y="38.02" width="3" height="4"/>
    <rect x="18.99" y="38.02" width="3" height="4"/>
    <rect x="18.99" y="43.02" width="3" height="3"/>
    <rect x="22.99" y="43.02" width="3" height="3"/>
    <rect x="37.99" y="38.02" width="3" height="4"/>
    <path d="M32,0A32,32,0,1,0,64,32,32,32,0,0,0,32,0ZM46.1,49.17H37V36H27V49.17H17.89V32.54L32,19.7,46.1,32.54Zm6.63-14.75a1,1,0,0,1-1.41,0L32,16.37,12.68,34.47A1,1,0,0,1,11.32,33L32,13.63,52.68,33A1,1,0,0,1,52.73,34.42Z"/>
    <rect x="37.99" y="43.02" width="3" height="3"/>
</svg>
