<svg xmlns="http://www.w3.org/2000/svg" viewBox="0 0 64 64" width="64" height="64">
    <path d="M45.39,51.91a3.32,3.32,0,0,0,2.78-2.78H45.39Z"/>
    <path d="M41.61,48.13h2.78V45.35A3.32,3.32,0,0,0,41.61,48.13Z"/>
    <path d="M44.39,51.91V49.13H41.61A3.32,3.32,0,0,0,44.39,51.91Z"/>
    <path d="M32,0A32,32,0,1,0,64,32,32,32,0,0,0,32,0ZM29.33,12h5.56v6.67H29.33Zm-1.11,7.8H36A1.11,1.11,0,0,1,36,22H28.22a1.11,1.11,0,0,1,0-2.22ZM36,23.1v10H28.22v-10ZM28.22,34.2H36a1.11,1.11,0,0,1,0,2.22H28.22a1.11,1.11,0,0,1,0-2.22Zm6.66,3.4v6.67H29.33V37.6ZM31.56,50.86H20.44a5.49,5.49,0,0,1-3.33-1.11c-.92-.92-1.11-3.33-1.11-3.33v-10a7.46,7.46,0,0,1,2.22-.56,7.46,7.46,0,0,1,2.22.56v10H31.56a7.46,7.46,0,0,1,.56,2.22A7.46,7.46,0,0,1,31.56,50.86Zm7.78-.56H33.22a6.11,6.11,0,0,0,.36-1.67A6.11,6.11,0,0,0,33.22,47h6.11Zm.56-22.78H37.11V25.3h2.78Zm.55-4.41a1.11,1.11,0,0,1,2.22,0v7.78a1.11,1.11,0,0,1-2.22,0ZM44.89,53a4.33,4.33,0,1,1,4.33-4.33A4.33,4.33,0,0,1,44.89,53Z"/>
    <path d="M45.39,45.35v2.78h2.78A3.32,3.32,0,0,0,45.39,45.35Z"/>
</svg>
