<svg width="42" height="42" viewBox="0 0 34 41" version="1.1" xmlns="http://www.w3.org/2000/svg" xmlns:xlink="http://www.w3.org/1999/xlink">
<title>Group</title>
<desc>Created using Figma</desc>
<g id="Canvas" transform="translate(-5885 11550)">
<g id="Group">
<g id="Vector 15">
<use xlink:href="#path0_stroke" transform="translate(5910.56 -11516.7)"/>
</g>
<g id="Rectangle 48">
<use xlink:href="#path1_fill" transform="translate(5896.11 -11527.8)"/>
</g>
<g id="Rectangle 48">
<use xlink:href="#path1_fill" transform="translate(5896.11 -11542.2)"/>
</g>
<g id="Rectangle 48">
<use xlink:href="#path1_fill" transform="matrix(6.12323e-17 -1 1 6.12323e-17 5909.44 -11530)"/>
</g>
<g id="Ellipse 5">
<mask id="mask0_outline_out">
<rect id="mask0_outline_inv" fill="white" x="-1" y="-1" width="9" height="9" transform="translate(5910.56 -11516.7)"/>
<use xlink:href="#path2_fill" fill="black" transform="translate(5910.56 -11516.7)"/>
</mask>
<g mask="url(#mask0_outline_out)">
<use xlink:href="#path3_stroke_2x" transform="translate(5910.56 -11516.7)"/>
</g>
</g>
<g id="Vector 14">
<use xlink:href="#path4_fill" transform="translate(5885 -11536.7)"/>
<use xlink:href="#path5_fill" transform="translate(5885 -11536.7)"/>
<use xlink:href="#path6_fill" transform="translate(5885 -11536.7)"/>
</g>
<g id="Rectangle 47">
<use xlink:href="#path7_fill" transform="translate(5898.33 -11550)"/>
</g>
<g id="Rectangle 47">
<use xlink:href="#path7_fill" transform="translate(5898.33 -11524.4)"/>
</g>
<g id="Rectangle 47">
<use xlink:href="#path8_fill" transform="translate(5897.22 -11538.9)"/>
</g>
</g>
</g>
<defs>
<path id="path0_stroke" d="M 2.83333 0L 2.83333 6.66667L 3.83333 6.66667L 3.83333 0L 2.83333 0ZM 0 3.83333L 6.66667 3.83333L 6.66667 2.83333L 0 2.83333L 0 3.83333Z"/>
<path id="path1_fill" d="M 0 1.11111C 0 0.497461 0.497461 0 1.11111 0L 8.88889 0C 9.50254 0 10 0.497462 10 1.11111C 10 1.72476 9.50254 2.22222 8.88889 2.22222L 1.11111 2.22222C 0.497461 2.22222 0 1.72476 0 1.11111Z"/>
<path id="path2_fill" d="M 6.66667 3.33333C 6.66667 5.17428 5.17428 6.66667 3.33333 6.66667C 1.49238 6.66667 0 5.17428 0 3.33333C 0 1.49238 1.49238 0 3.33333 0C 5.17428 0 6.66667 1.49238 6.66667 3.33333Z"/>
<path id="path3_stroke_2x" d="M 5.66667 3.33333C 5.66667 4.622 4.622 5.66667 3.33333 5.66667L 3.33333 7.66667C 5.72657 7.66667 7.66667 5.72657 7.66667 3.33333L 5.66667 3.33333ZM 3.33333 5.66667C 2.04467 5.66667 1 4.622 1 3.33333L -1 3.33333C -1 5.72657 0.940099 7.66667 3.33333 7.66667L 3.33333 5.66667ZM 1 3.33333C 1 2.04467 2.04467 1 3.33333 1L 3.33333 -1C 0.940099 -1 -1 0.940099 -1 3.33333L 1 3.33333ZM 3.33333 1C 4.622 1 5.66667 2.04467 5.66667 3.33333L 7.66667 3.33333C 7.66667 0.940099 5.72657 -1 3.33333 -1L 3.33333 1Z"/>
<path id="path4_fill" d="M 21.1111 2.22222L 21.1111 0L 23.8889 0L 23.8889 2.22222L 21.1111 2.22222Z"/>
<path id="path5_fill" d="M 23.3333 25L 23.3333 21.6667L 17.2222 21.6667C 17.2222 21.6667 17.7778 22.6473 17.7778 23.3333C 17.7778 24.0194 17.2222 25 17.2222 25L 23.3333 25Z"/>
<path id="path6_fill" d="M 4.44444 21.1111L 15.5556 21.1111C 15.5556 21.1111 16.1111 22.4388 16.1111 23.3333C 16.1111 24.2279 15.5556 25.5556 15.5556 25.5556L 4.44444 25.5556C 4.44444 25.5556 2.22223 25.5556 1.11111 24.4444C 0.190632 23.524 0 21.1111 0 21.1111L 0 11.1111C 0 11.1111 1.32768 10.5556 2.22222 10.5556C 3.11676 10.5556 4.44444 11.1111 4.44444 11.1111L 4.44444 21.1111Z"/>
<path id="path7_fill" d="M 0 0L 5.55556 0L 5.55556 6.66667L 0 6.66667L 0 0Z"/>
<path id="path8_fill" d="M 0 0L 7.77778 0L 7.77778 10L 0 10L 0 0Z"/>
</defs>
</svg>
