<svg xmlns="http://www.w3.org/2000/svg" viewBox="0 0 24.95 24.95">
    <path d="M10.49,13.83a.43.43,0,0,1,.43-.43h3a.43.43,0,1,1,0,.87h-3A.43.43,0,0,1,10.49,13.83Z"/>
    <path d="M10.49,8.13a.43.43,0,0,1,.43-.43h3a.43.43,0,1,1,0,.87h-3A.43.43,0,0,1,10.49,8.13Z"/>
    <path d="M16.13,12.5a.43.43,0,0,1-.43-.43V9a.43.43,0,1,1,.87,0v3A.43.43,0,0,1,16.13,12.5Z"/>
    <path d="M14.4,10.77V9.9h1.09v.87Z"/>
    <path d="M15.26,19.67v-1.3H12.88L13,19l-.1.66Z"/>
    <path d="M7.89,18.15h4.34a2.91,2.91,0,0,1,.22.87,2.91,2.91,0,0,1-.22.87H7.89a2.14,2.14,0,0,1-1.3-.43,2.64,2.64,0,0,1-.43-1.3V14.24A2.91,2.91,0,0,1,7,14a2.91,2.91,0,0,1,.87.22Z"/>
    <path d="M11.36,4.7h2.17V7.3H11.36Z"/>
    <path d="M11.36,14.7h2.17v2.6H11.36Z"/>
    <path d="M10.92,9h3v3.91h-3Z"/>
    <path d="M17.43,17.2a1.8,1.8,0,1,0,1.8,1.8A1.8,1.8,0,0,0,17.43,17.2Zm1.3,1.8h0Zm-.05-.25h-1v-1A1.27,1.27,0,0,1,18.69,18.75ZM17.44,17.7h0Zm-.25,0v1h-1A1.27,1.27,0,0,1,17.18,17.75ZM16.13,19h0Zm0,.26h1v1A1.27,1.27,0,0,1,16.18,19.25Zm1.25,1.05h0Zm.26,0v-1h1A1.27,1.27,0,0,1,17.68,20.26Z"/>
    <path d="M12.48.4A12.08,12.08,0,1,1,.4,12.48,12.09,12.09,0,0,1,12.48.4m0-.4A12.48,12.48,0,1,0,25,12.48,12.48,12.48,0,0,0,12.48,0Z"/>
</svg>
