<svg xmlns="http://www.w3.org/2000/svg" viewBox="0 0 24.95 24.95">
    <path d="M16.35,17.2H8.62A1.12,1.12,0,0,0,8,18.27a.89.89,0,0,0,.58.9h7.73a1,1,0,0,0,.49-.9A1.3,1.3,0,0,0,16.35,17.2ZM8.91,18.52H8.53v-.82h.38Zm.69-.41H9.27v-.41H9.6Zm.74.41H10v-.82h.33Zm.74-.41h-.33v-.41h.33Zm.74.41h-.33v-.82h.33Zm.74-.41h-.33v-.41h.33Zm.74.41H13v-.82h.33ZM14,18.1h-.33v-.41H14Zm.74.49h-.41v-.9h.41Zm.74-.49h-.33v-.41h.33Zm.74.41h-.33v-.82h.33Z"/>
    <path d="M8.28,16.81h3.88l0,.28,1.4-.93,1.7-3.58-1.52-.7-1.7,3.57,0,.46H8.28ZM12.87,16l-.13.09-.13-.05v-.16Z"/>
    <path d="M20.39,12.64l-8-7.48-8,7.48a.25.25,0,0,0,.34.36L12.4,5.84,20,13a.25.25,0,0,0,.34-.36Z"/>
    <polygon points="6.64 12.61 6.64 19.21 7.14 19.21 7.14 12.83 12.4 8.04 17.66 12.83 17.66 19.21 18.16 19.21 18.16 12.61 12.4 7.36 6.64 12.61"/>
    <path d="M12.48.4A12.08,12.08,0,1,1,.4,12.48,12.09,12.09,0,0,1,12.48.4m0-.4A12.48,12.48,0,1,0,25,12.48,12.48,12.48,0,0,0,12.48,0Z"/>
</svg>
