<svg xmlns="http://www.w3.org/2000/svg" viewBox="0 0 24.95 24.95">
    <path d="M12.5.4A12.1,12.1,0,1,1,.4,12.5h0A12.08,12.08,0,0,1,12.5.4m0-.4A12.5,12.5,0,1,0,25,12.5,12.5,12.5,0,0,0,12.5,0Z"/>
    <path d="M4.5,12.7v3.7h1l-.6.9H6.5l1.1-.9h9.5l1.1.9h1.6l-.6-.9h1.29l0-3.56a1.51,1.51,0,0,0,.93-2,1.54,1.54,0,0,0-2-.79V9.9a2.22,2.22,0,0,0-2.2-2.2H7.7A2.22,2.22,0,0,0,5.5,9.9V10a1.44,1.44,0,0,0-1,2.7Zm1.9,4.2H5.6l.3-.5H7Zm12.8,0h-.8l-.6-.5h1.1ZM5.9,9.9A1.79,1.79,0,0,1,7.7,8.1h9.5A1.79,1.79,0,0,1,19,9.9v.4a1.39,1.39,0,0,0-.5,1v1.6a30.8,30.8,0,0,0-12.1,0V11.3a1.61,1.61,0,0,0-.5-1.1Zm12.7,3.4v1.1H6.5V13.3A30.8,30.8,0,0,1,18.6,13.3ZM5,10.3a1.09,1.09,0,0,1,1.1,1v3.5H18.9V11.4a1.1,1.1,0,0,1,2.2.2,1.05,1.05,0,0,1-.8,1h-.1V16H4.8V12.4H4.7A1.08,1.08,0,0,1,4,11,1,1,0,0,1,5,10.3Z"/>
</svg>
