<svg xmlns="http://www.w3.org/2000/svg" viewBox="0 0 64 64" width="64" height="64">
    <path d="M16.81,34v2.68H47.19V34A74.8,74.8,0,0,0,16.81,34Z"/>
    <polygon points="14.56 43.08 16.56 43.08 18.16 41.85 15.36 41.85 14.56 43.08"/>
    <path d="M16.81,28.95v4.14a75.74,75.74,0,0,1,30.39,0V29a3.71,3.71,0,0,1,1.22-2.55v-1a4.5,4.5,0,0,0-4.5-4.5h-24a4.5,4.5,0,0,0-4.5,4.5v.87A3.68,3.68,0,0,1,16.81,28.95Z"/>
    <path d="M32,0A32,32,0,1,0,64,32,32,32,0,0,0,32,0ZM52.29,32.57v9.27H49.15L50.57,44H46.51l-2.84-2.17h-24L16.88,44H12.82l1.42-2.17H11.7V32.57a3.69,3.69,0,0,1,2.8-6.83v-.31A5.45,5.45,0,0,1,19.94,20h24a5.45,5.45,0,0,1,5.44,5.44v.37a3.69,3.69,0,0,1,2.93,6.77Z"/>
    <polygon points="45.23 41.85 46.83 43.08 48.83 43.08 48.03 41.85 45.23 41.85"/>
    <path d="M51,26.42A2.74,2.74,0,0,0,48.13,29v8.68H15.86V29a2.74,2.74,0,1,0-3.55,2.81l.34.1v9H51.34v-9l.34-.1A2.74,2.74,0,0,0,51,26.42Z"/>
</svg>
