<svg xmlns="http://www.w3.org/2000/svg" viewBox="0 0 24.95 24.95">
    <path d="M20.56,12.85,12.4,5.22,4.25,12.85a.5.5,0,0,0,.68.73l7.47-7,7.47,7a.5.5,0,1,0,.68-.73Z"/>
    <path d="M12.4,7.7l-5.51,5v6.5h3.56V14.07h3.91v5.14h3.56v-6.5ZM8.49,18H7.32V16.81H8.49Zm0-1.56H7.32V14.85H8.49ZM10.06,18H8.88V16.81h1.17Zm0-1.56H8.88V14.85h1.17ZM15.92,18H14.74V16.81h1.17Zm0-1.56H14.74V14.85h1.17ZM17.48,18H16.31V16.81h1.17Zm0-1.56H16.31V14.85h1.17Z"/>
    <path d="M12.48.4A12.08,12.08,0,1,1,.4,12.48,12.09,12.09,0,0,1,12.48.4m0-.4A12.48,12.48,0,1,0,25,12.48,12.48,12.48,0,0,0,12.48,0Z"/>
</svg>
