<svg width="42" height="42" viewBox="0 0 42 37" version="1.1" xmlns="http://www.w3.org/2000/svg" xmlns:xlink="http://www.w3.org/1999/xlink">
<title>Group</title>
<desc>Created using Figma</desc>
<g id="Canvas" transform="translate(-6180 11549)">
<g id="Group">
<g id="Vector 8">
<use xlink:href="#path0_stroke" transform="translate(6181 -11547)"/>
</g>
<g id="Vector 7">
<use xlink:href="#path1_fill" transform="translate(6186.89 -11542.3)"/>
</g>
</g>
</g>
<defs>
<path id="path0_stroke" d="M 20 0L 20.6837 -0.729777L 20 -1.37028L 19.3163 -0.729777L 20 0ZM 39.3163 19.4666C 39.7194 19.8442 40.3522 19.8236 40.7298 19.4205C 41.1074 19.0175 41.0867 18.3847 40.6837 18.0071L 39.3163 19.4666ZM -0.683686 18.0071C -1.08673 18.3847 -1.10737 19.0175 -0.729777 19.4205C -0.352188 19.8236 0.280641 19.8442 0.683686 19.4666L -0.683686 18.0071ZM 19.3163 0.729777L 39.3163 19.4666L 40.6837 18.0071L 20.6837 -0.729777L 19.3163 0.729777ZM 19.3163 -0.729777L -0.683686 18.0071L 0.683686 19.4666L 20.6837 0.729777L 19.3163 -0.729777Z"/>
<path id="path1_fill" fill-rule="evenodd" d="M 0 12.8421L 14.1053 0L 28.2105 12.8421L 28.2105 29.4737L 19.1052 29.4737L 19.1052 16.3158L 9.10522 16.3158L 9.10522 29.4737L 0 29.4737L 0 12.8421ZM 4.10522 18.3158L 1.10522 18.3158L 1.10522 22.3158L 4.10522 22.3158L 4.10522 18.3158ZM 5.10522 18.3158L 8.10522 18.3158L 8.10522 22.3158L 5.10522 22.3158L 5.10522 18.3158ZM 5.10522 26.3158L 8.10522 26.3158L 8.10522 23.3158L 5.10522 23.3158L 5.10522 26.3158ZM 4.10522 26.3158L 1.10522 26.3158L 1.10522 23.3158L 4.10522 23.3158L 4.10522 26.3158ZM 20.1052 18.3158L 20.1052 22.3158L 23.1052 22.3158L 23.1052 18.3158L 20.1052 18.3158ZM 27.1052 18.3158L 27.1052 22.3158L 24.1052 22.3158L 24.1052 18.3158L 27.1052 18.3158ZM 27.1052 26.3158L 27.1052 23.3158L 24.1052 23.3158L 24.1052 26.3158L 27.1052 26.3158ZM 20.1052 26.3158L 20.1052 23.3158L 23.1052 23.3158L 23.1052 26.3158L 20.1052 26.3158Z"/>
</defs>
</svg>
