<svg width="42" height="42" viewBox="0 0 36 40" version="1.1" xmlns="http://www.w3.org/2000/svg" xmlns:xlink="http://www.w3.org/1999/xlink">
<title>Group</title>
<desc>Created using Figma</desc>
<g id="Canvas" transform="translate(-6458 11550)">
<g id="Group">
<g id="Rectangle 42">
<mask id="mask0_outline_ins">
<use xlink:href="#path0_fill" fill="white" transform="translate(6463.49 -11550)"/>
</mask>
<g mask="url(#mask0_outline_ins)">
<use xlink:href="#path1_stroke_2x" transform="translate(6463.49 -11550)"/>
</g>
</g>
<g id="Rectangle 42">
<use xlink:href="#path2_stroke" transform="translate(6459 -11545.1)"/>
</g>
<g id="Rectangle 43">
<mask id="mask1_outline_ins">
<use xlink:href="#path3_fill" fill="white" transform="translate(6474.73 -11526.2)"/>
</mask>
<g mask="url(#mask1_outline_ins)">
<use xlink:href="#path4_stroke_2x" transform="translate(6474.73 -11526.2)"/>
</g>
</g>
<g id="Vector 11">
<use xlink:href="#path5_stroke" transform="translate(6490.91 -11544.6)"/>
</g>
</g>
</g>
<defs>
<path id="path0_fill" d="M 0 5.39326C 0 2.41464 2.41464 0 5.39326 0L 22.4719 0C 25.4505 0 27.8652 2.41464 27.8652 5.39326C 27.8652 8.37187 25.4505 10.7865 22.4719 10.7865L 5.39326 10.7865C 2.41464 10.7865 0 8.37187 0 5.39326Z"/>
<path id="path1_stroke_2x" d="M 5.39326 2L 22.4719 2L 22.4719 -2L 5.39326 -2L 5.39326 2ZM 22.4719 8.78652L 5.39326 8.78652L 5.39326 12.7865L 22.4719 12.7865L 22.4719 8.78652ZM 5.39326 -2C 1.31007 -2 -2 1.31007 -2 5.39326L 2 5.39326C 2 3.51921 3.51921 2 5.39326 2L 5.39326 -2ZM 22.4719 2C 24.346 2 25.8652 3.51921 25.8652 5.39326L 29.8652 5.39326C 29.8652 1.31008 26.5551 -2 22.4719 -2L 22.4719 2ZM 25.8652 5.39326C 25.8652 7.2673 24.346 8.78652 22.4719 8.78652L 22.4719 12.7865C 26.5551 12.7865 29.8652 9.47644 29.8652 5.39326L 25.8652 5.39326ZM 5.39326 8.78652C 3.51921 8.78652 2 7.2673 2 5.39326L -2 5.39326C -2 9.47644 1.31007 12.7865 5.39326 12.7865L 5.39326 8.78652Z"/>
<path id="path2_stroke" d="M 20.1011 19.3258L 20.1011 16.7865L 18.1011 16.7865L 18.1011 19.3258L 20.1011 19.3258ZM 13.1011 9.78652L 5.39326 9.78652L 5.39326 11.7865L 13.1011 11.7865L 13.1011 9.78652ZM 1 5.39326L 1 5.16854L -1 5.16854L -1 5.39326L 1 5.39326ZM 1 5.16854C 1 2.86632 2.86632 1 5.16854 1L 5.16854 -1C 1.76175 -1 -1 1.76175 -1 5.16854L 1 5.16854ZM 20.1011 16.7865C 20.1011 12.9205 16.9671 9.78652 13.1011 9.78652L 13.1011 11.7865C 15.8625 11.7865 18.1011 14.0251 18.1011 16.7865L 20.1011 16.7865ZM 5.39326 9.78652C 2.96693 9.78652 1 7.81959 1 5.39326L -1 5.39326C -1 8.92416 1.86236 11.7865 5.39326 11.7865L 5.39326 9.78652Z"/>
<path id="path3_fill" d="M 0 3.14607C 0 1.40854 1.40854 0 3.14607 0C 4.88359 0 6.29213 1.40854 6.29213 3.14607L 6.29213 13.0337C 6.29213 14.7712 4.88359 16.1798 3.14607 16.1798C 1.40854 16.1798 0 14.7712 0 13.0337L 0 3.14607Z"/>
<path id="path4_stroke_2x" d="M 4.29213 3.14607L 4.29213 13.0337L 8.29214 13.0337L 8.29214 3.14607L 4.29213 3.14607ZM 2 13.0337L 2 3.14607L -2 3.14607L -2 13.0337L 2 13.0337ZM 3.14607 -2C 0.303973 -2 -2 0.303973 -2 3.14607L 2 3.14607C 2 2.51311 2.51311 2 3.14607 2L 3.14607 -2ZM 3.14607 2C 3.77902 2 4.29213 2.51311 4.29213 3.14607L 8.29214 3.14607C 8.29214 0.303972 5.98816 -2 3.14607 -2L 3.14607 2ZM 4.29213 13.0337C 4.29213 13.6667 3.77902 14.1798 3.14607 14.1798L 3.14607 18.1798C 5.98816 18.1798 8.29214 15.8758 8.29214 13.0337L 4.29213 13.0337ZM 3.14607 14.1798C 2.51311 14.1798 2 13.6667 2 13.0337L -2 13.0337C -2 15.8758 0.303973 18.1798 3.14607 18.1798L 3.14607 14.1798Z"/>
<path id="path5_stroke" d="M 0 1L 2.24719 1L 2.24719 -1L 0 -1L 0 1Z"/>
</defs>
</svg>
