<svg xmlns="http://www.w3.org/2000/svg" viewBox="0 0 64 64" width="64" height="64">
    <path d="M42,13.43H24.76a3.63,3.63,0,0,0,0,7.27H42a3.63,3.63,0,0,0,0-7.27Z"/>
    <path d="M32,0A32,32,0,1,0,64,32,32,32,0,0,0,32,0ZM49.35,17.9H47.26A5.38,5.38,0,0,1,42,22.44H24.76A5.38,5.38,0,0,1,19.47,18,4.16,4.16,0,0,0,16,22.07v.22a4.39,4.39,0,0,0,4.39,4.39H28.1a7,7,0,0,1,7,7v2.15a3.09,3.09,0,0,1,2.12,2.92V49A3.1,3.1,0,0,1,31,49V38.76a3.09,3.09,0,0,1,2.08-2.91V33.69a5,5,0,0,0-5-5H20.39A6.39,6.39,0,0,1,14,22.29v-.22a6.17,6.17,0,0,1,5.5-6.13,5.39,5.39,0,0,1,5.26-4.26H42a5.39,5.39,0,0,1,5.25,4.23h2.13Z"/>
    <path d="M32.77,49a1.35,1.35,0,0,0,2.7,0V38.76a1.35,1.35,0,0,0-2.7,0Z"/>
</svg>
