<svg xmlns="http://www.w3.org/2000/svg" viewBox="0 0 24.95 24.95">
    <path d="M19.08,6.38h-.82A2.17,2.17,0,0,0,16.11,4.5H9.67A2.17,2.17,0,0,0,7.53,6.38a2.26,2.26,0,0,0-2,2.24v.09a2.36,2.36,0,0,0,2.36,2.36h2a3.08,3.08,0,0,1,3.08,3,1.29,1.29,0,0,0-1,1.25v3.88a1.31,1.31,0,0,0,2.62,0V15.33a1.29,1.29,0,0,0-1.09-1.26,3.58,3.58,0,0,0-3.58-3.5h-2A1.86,1.86,0,0,1,6,8.71V8.62A1.76,1.76,0,0,1,7.52,6.88a2.17,2.17,0,0,0,2.15,2h6.43a2.17,2.17,0,0,0,2.15-2h.82Zm-5,8.94v3.88a.81.81,0,0,1-1.62,0V15.33a.81.81,0,0,1,1.62,0Zm2-7.08H9.67a1.57,1.57,0,1,1,0-3.15h6.43a1.57,1.57,0,1,1,0,3.15Z"/>
    <path d="M12.48.4A12.08,12.08,0,1,1,.4,12.48,12.09,12.09,0,0,1,12.48.4m0-.4A12.48,12.48,0,1,0,25,12.48,12.48,12.48,0,0,0,12.48,0Z"/>
</svg>
