<svg width="42" height="42" viewBox="0 0 42 39" version="1.1" xmlns="http://www.w3.org/2000/svg" xmlns:xlink="http://www.w3.org/1999/xlink">
<title>Vector 13</title>
<desc>Created using Figma</desc>
<g id="Canvas" transform="translate(-5880 11445)">
<g id="Vector 13">
<use xlink:href="#path0_fill" transform="translate(5881 -11444)" fill="#FFFFFF"/>
<use xlink:href="#path1_stroke" transform="translate(5881 -11444)" fill="#FFFFFF"/>
</g>
</g>
<defs>
<path id="path0_fill" d="M 33.2308 21.5385L 40 14.7692L 26.4615 1.23077L 17.2308 0L 14.7692 2.46154L 22.5112 10.4615L 26.6799 14.7692L 33.2308 21.5385Z"/>
<path id="path1_stroke" d="M 0 31.3846L -0.340399 31.0184L -0.72027 31.3714L -0.353553 31.7382L 0 31.3846ZM 5.53846 36.9231L 5.18491 37.2766L 5.54683 37.6385L 5.90018 37.2683L 5.53846 36.9231ZM 33.2308 21.5385L 32.8715 21.8862L 33.2249 22.2514L 33.5843 21.892L 33.2308 21.5385ZM 40 14.7692L 40.3536 15.1228L 40.7071 14.7692L 40.3536 14.4157L 40 14.7692ZM 26.4615 1.23077L 26.8151 0.877216L 26.6954 0.757526L 26.5276 0.735155L 26.4615 1.23077ZM 17.2308 0L 17.2969 -0.495614L 17.0519 -0.52827L 16.8772 -0.353553L 17.2308 0ZM 14.7692 2.46154L 14.4157 2.10798L 14.0679 2.45579L 14.4099 2.80925L 14.7692 2.46154ZM 22.5112 10.4615L 22.8705 10.1138L 22.5112 10.4615ZM -0.353553 31.7382L 5.18491 37.2766L 5.89201 36.5695L 0.353553 31.0311L -0.353553 31.7382ZM 33.5843 21.892L 40.3536 15.1228L 39.6464 14.4157L 32.8772 21.1849L 33.5843 21.892ZM 40.3536 14.4157L 26.8151 0.877216L 26.108 1.58432L 39.6464 15.1228L 40.3536 14.4157ZM 26.5276 0.735155L 17.2969 -0.495614L 17.1647 0.495614L 26.3955 1.72638L 26.5276 0.735155ZM 16.8772 -0.353553L 14.4157 2.10798L 15.1228 2.81509L 17.5843 0.353553L 16.8772 -0.353553ZM 26.3206 15.1169L 32.8715 21.8862L 33.5901 21.1907L 27.0392 14.4215L 26.3206 15.1169ZM 5.90018 37.2683L 27.0416 15.1144L 26.3182 14.424L 5.17674 36.5779L 5.90018 37.2683ZM 14.4099 2.80925L 22.1519 10.8092L 22.8705 10.1138L 15.1285 2.11383L 14.4099 2.80925ZM 22.1519 10.8092L 26.3206 15.1169L 27.0392 14.4215L 22.8705 10.1138L 22.1519 10.8092ZM 0.340399 31.7508L 22.8516 10.8278L 22.1708 10.0953L -0.340399 31.0184L 0.340399 31.7508Z"/>
</defs>
</svg>
